HIERARCHY
ROOT RootJoint
{
    OFFSET   0.000000   0.000000   0.000000
    CHANNELS 6 Xposition Yposition Zposition Xrotation Yrotation Zrotation
    JOINT pelvis_lowerback
    {
        OFFSET   0.000000   0.093605   0.000000
        CHANNELS 3 Xrotation Yrotation Zrotation
        JOINT lowerback_torso
        {
            OFFSET   0.000000   0.100000   0.000000
            CHANNELS 3 Xrotation Yrotation Zrotation
            JOINT torso_head
            {
                OFFSET   0.000000   0.282350   0.000000
                CHANNELS 3 Xrotation Yrotation Zrotation
                End Site
                {
                    OFFSET   0.000000   0.192650   0.000000
                }
            }
            JOINT rTorso_Clavicle
            {
                OFFSET  -0.001000   0.157500   0.000000
                CHANNELS 3 Xrotation Yrotation Zrotation
                JOINT rShoulder
                {
                    OFFSET  -0.117647   0.000000   0.000000
                    CHANNELS 3 Xrotation Yrotation Zrotation
                    JOINT rElbow
                    {
                        OFFSET  -0.245000   0.000000   0.000000
                        CHANNELS 3 Xrotation Yrotation Zrotation
                        JOINT rWrist
                        {
                            OFFSET  -0.240000   0.000000   0.000000
                            CHANNELS 3 Xrotation Yrotation Zrotation
                            End Site
                            {
                                OFFSET  -0.116353  -0.002500   0.000000
                            }
                        }
                    }
                }
            }
            JOINT lTorso_Clavicle
            {
                OFFSET   0.001000   0.157500   0.000000
                CHANNELS 3 Xrotation Yrotation Zrotation
                JOINT lShoulder
                {
                    OFFSET   0.117647   0.000000   0.000000
                    CHANNELS 3 Xrotation Yrotation Zrotation
                    JOINT lElbow
                    {
                        OFFSET   0.245000   0.000000   0.000000
                        CHANNELS 3 Xrotation Yrotation Zrotation
                        JOINT lWrist
                        {
                            OFFSET   0.240000   0.000000   0.000000
                            CHANNELS 3 Xrotation Yrotation Zrotation
                            End Site
                            {
                                OFFSET   0.116353  -0.002500   0.000000
                            }
                        }
                    }
                }
            }
        }
    }
    JOINT rHip
    {
        OFFSET  -0.100000  -0.051395   0.000000
        CHANNELS 3 Xrotation Yrotation Zrotation
        JOINT rKnee
        {
            OFFSET   0.000000  -0.410000   0.000000
            CHANNELS 3 Xrotation Yrotation Zrotation
            JOINT rAnkle
            {
                OFFSET   0.000000  -0.390000   0.000000
                CHANNELS 3 Xrotation Yrotation Zrotation
                JOINT rToeJoint
                {
                    OFFSET   0.000000  -0.050000   0.130000
                    CHANNELS 3 Xrotation Yrotation Zrotation
                    End Site
                    {
                        OFFSET  -0.010000   0.002000   0.060000
                    }
                }
            }
        }
    }
    JOINT lHip
    {
        OFFSET   0.100000  -0.051395   0.000000
        CHANNELS 3 Xrotation Yrotation Zrotation
        JOINT lKnee
        {
            OFFSET   0.000000  -0.410000   0.000000
            CHANNELS 3 Xrotation Yrotation Zrotation
            JOINT lAnkle
            {
                OFFSET   0.000000  -0.390000   0.000000
                CHANNELS 3 Xrotation Yrotation Zrotation
                JOINT lToeJoint
                {
                    OFFSET   0.000000  -0.050000   0.130000
                    CHANNELS 3 Xrotation Yrotation Zrotation
                    End Site
                    {
                        OFFSET   0.010000   0.002000   0.060000
                    }
                }
            }
        }
    }
}
MOTION
Frames: 15
Frame Time:   0.008333
 -2.376719   0.925631   3.975860   0.000000   0.000000   0.000000   0.000000   0.000000   0.000000   0.000000   0.000000   0.000000   0.000000   0.000000   0.000000   0.000000   0.000000   0.000000   0.000000   0.000000   0.000000   0.000000   0.000000   0.000000   0.000000   0.000000   0.000000   0.000000   0.000000   0.000000   0.000000   0.000000   0.000000   0.000000   0.000000   0.000000   0.000000   0.000000   0.000000   0.000000   0.000000   0.000000   0.000000   0.000000   0.000000   0.000000   0.000000   0.000000   0.000000   0.000000   0.000000   0.000000   0.000000   0.000000   0.000000   0.000000   0.000000   0.000000   0.000000   0.000000   0.000000   0.000000   0.000000
 -2.376597   0.925952   3.976033  -0.054886   0.012750   0.046328  -0.020625   0.030797  -0.043762   0.033076  -0.140280   0.007106   0.004530   0.071820  -0.029177   0.247930  -0.365577  -0.091212   0.886367   0.367777   2.268252   0.029878   1.549987  -0.015157   0.251818  -0.739974  -2.597439   0.198312   0.379336  -0.051944   0.997356  -0.145348  -2.205749   0.028248  -1.428297   0.014692   0.294888   0.576887   2.694014  -0.112069   0.000463  -0.170878   0.620221   0.000674   0.000066  -0.719338  -0.329888  -0.093072  -0.044588  -0.000084   0.000123  -0.097009  -0.295149   0.056321   0.617615  -0.000564  -0.001519  -0.850369   0.095243   0.205676   0.204081  -0.000546  -0.000332
 -2.376475   0.926549   3.976336  -0.149148  -0.000548   0.101880  -0.074637   0.065252  -0.089624   0.063191  -0.271761   0.001946   0.016454   0.138411  -0.054810   0.487658  -0.624984   0.433699   1.739169   0.864158   5.021681   0.068616   3.070075  -0.025594   0.539284  -0.967428  -4.566770   0.395755   0.666223  -0.742081   1.968969  -0.406594  -4.921219   0.064892  -2.822229   0.025004   0.628252   0.719866   4.743684  -0.182427  -0.002394  -0.444912   1.281915   0.001800  -0.000074  -1.392643  -0.641945  -0.185549  -0.121371  -0.000275   0.000318  -0.129042  -0.583069   0.201097   1.277092  -0.001654  -0.002921  -1.647782   0.181522   0.399518   0.345433  -0.000922  -0.000528
 -2.376374   0.927077   3.976727  -0.245783  -0.027065   0.158862  -0.157900   0.098876  -0.137598   0.066372  -0.392017  -0.011830   0.019456   0.200140  -0.076961   0.712719  -0.799374   1.348905   2.548374   1.450675   8.086258   0.106543   4.509948  -0.031933   0.823349  -0.993458  -5.827026   0.583333   0.871142  -1.828655   2.906892  -0.762595  -7.963264   0.100873  -4.141906   0.031603   0.956104   0.690568   6.057700  -0.234328  -0.007292  -0.793298   1.915691   0.003046  -0.000305  -2.021167  -0.933632  -0.276093  -0.196172  -0.000469   0.000465  -0.127678  -0.851514   0.426619   1.914578  -0.002976  -0.003913  -2.391981   0.260545   0.582006   0.469733  -0.001242  -0.000652
 -2.376296   0.927283   3.977179  -0.336248  -0.059940   0.214817  -0.260490   0.130014  -0.188423   0.045621  -0.503966  -0.032242   0.013921   0.257653  -0.096700   0.925407  -0.918951   2.494969   3.312496   2.110227  11.359193   0.139294   5.864519  -0.035445   1.099017  -0.929919  -6.555382   0.761549   1.020529  -3.145145   3.810558  -1.201039 -11.222858   0.132081  -5.384007   0.035660   1.274134   0.579998   6.821148  -0.276869  -0.013152  -1.197494   2.511286   0.004234  -0.000556  -2.608633  -1.205973  -0.364301  -0.269683  -0.000655   0.000570  -0.105736  -1.101005   0.719707   2.518782  -0.004320  -0.004513  -3.087093   0.333102   0.753752   0.578902  -0.001490  -0.000716
 -2.376239   0.926983   3.977673  -0.419133  -0.096249   0.268734  -0.374410   0.157937  -0.242039   0.008192  -0.609473  -0.058083   0.002688   0.311316  -0.114754   1.127251  -1.004309   3.764497   4.029679   2.830616  14.770301   0.165160   7.134064  -0.037071   1.363591  -0.826011  -6.917498   0.930748   1.133359  -4.580945   4.678211  -1.712058 -14.626101   0.156891  -6.549095   0.038017   1.580106   0.429775   7.206319  -0.313813  -0.019204  -1.643283   3.068709   0.005276  -0.000795  -3.157812  -1.460080  -0.449863  -0.341164  -0.000822   0.000640  -0.069209  -1.332853   1.066957   3.088430  -0.005559  -0.004800  -3.736418   0.399732   0.915298   0.675146  -0.001665  -0.000736
 -2.376197   0.926041   3.978197  -0.494631  -0.135197   0.320130  -0.493823   0.182452  -0.297981  -0.039648  -0.709587  -0.088422  -0.011915   0.361415  -0.131545   1.319297  -1.068246   5.085532   4.697817   3.603032  18.271985   0.183934   8.321180  -0.037466   1.615506  -0.707386  -7.037237   1.091205   1.221762  -6.062797   5.507418  -2.288179 -18.123040   0.175079  -7.639581   0.039247   1.872588   0.262642   7.341106  -0.347269  -0.024932  -2.119000   3.589780   0.006127  -0.001011  -3.671163  -1.697061  -0.532541  -0.409772  -0.000961   0.000680  -0.021823  -1.548364   1.456070   3.624455  -0.006618  -0.004855  -4.342920   0.460905   1.067161   0.760542  -0.001774  -0.000728
 -2.376137   0.923836   3.978244  -0.412113  -0.216057   0.368433  -0.641500   0.201985  -0.298634  -0.126037  -0.792762  -0.195738  -0.132423   0.322378  -0.151604   1.561162  -1.080147   5.637539   5.602686   4.573622  22.133189   0.202773   9.678555  -0.044576   1.820267  -0.638248  -6.484182   1.363819   1.295954  -6.750531   6.193199  -2.957956 -21.870318   0.187834  -8.795891   0.042073   2.119502   0.035188   6.640077  -0.635474  -0.210426  -2.540876   4.092755   0.006451  -0.002175  -3.919767  -2.018925  -0.409331  -0.320870  -0.000569   0.000083  -0.072932  -1.620454   1.784580   3.686221  -0.005506  -0.003948  -4.621269   0.502165   1.235990   0.880544  -0.001990  -0.000689
 -2.376068   0.920551   3.978014  -0.313195  -0.283113   0.411437  -0.730441   0.211128  -0.294202  -0.195986  -0.872409  -0.295934  -0.251731   0.281119  -0.177322   1.773494  -1.039908   6.045523   6.375982   5.573633  25.674216   0.210461  10.969066  -0.049553   2.046200  -0.433461  -5.870897   1.604597   1.321345  -7.257760   6.783009  -3.651463 -25.285635   0.190856  -9.891674   0.043930   2.369245  -0.284210   5.918437  -0.959549  -0.393880  -2.908753   4.537624   0.006326  -0.002898  -4.148622  -2.322566  -0.295922  -0.215149  -0.000258  -0.000455  -0.170026  -1.684525   2.058982   3.663180  -0.004338  -0.003138  -4.883359   0.539944   1.393663   0.999144  -0.002081  -0.000634
 -2.375967   0.920578   3.978070  -0.315421  -0.341220   0.427922  -0.760917   0.218756  -0.265591  -0.214918  -0.946672  -0.377213  -0.349572   0.242226  -0.204183   1.968034  -0.975335   6.623288   7.032786   6.566919  29.020972   0.213431  12.172190  -0.051828   2.269572  -0.224870  -5.394917   1.821260   1.319681  -7.913838   7.286537  -4.348222 -28.506707   0.190050 -10.913167   0.044212   2.612396  -0.590770   5.364180  -1.309524  -0.635168  -2.990336   5.152429   0.005225  -0.004108  -4.006905  -2.662564  -0.066732  -0.039448  -0.000436  -0.001373  -0.268701  -1.663716   2.031585   3.860636  -0.003471  -0.002555  -4.779572   0.643070   1.416827   1.179084  -0.001692  -0.000399
 -2.375880   0.920687   3.978265  -0.288277  -0.382775   0.452304  -0.814110   0.223404  -0.251239  -0.239394  -1.017901  -0.446114  -0.439911   0.205859  -0.229287   2.151344  -0.912384   7.068866   7.592656   7.537846  32.141624   0.209863  13.306788  -0.052285   2.484990   0.034047  -4.824583   2.022543   1.313669  -8.411027   7.720960  -5.031158 -31.495054   0.184020 -11.877180   0.043369   2.846387  -0.941736   4.746831  -1.600167  -0.801153  -3.060989   5.661087   0.004247  -0.004330  -4.112502  -2.925110   0.039888   0.089534  -0.000419  -0.001645  -0.330901  -1.713251   1.982672   3.981042  -0.002763  -0.002134  -4.900066   0.671241   1.552080   1.315577  -0.001487  -0.000384
 -2.375794   0.920778   3.978497  -0.232641  -0.413504   0.483498  -0.868144   0.227976  -0.240803  -0.273189  -1.084494  -0.507795  -0.526606   0.172008  -0.254111   2.317467  -0.850628   7.427998   8.065966   8.470968  35.018080   0.201567  14.368516  -0.051402   2.691551   0.302598  -4.315349   2.204741   1.304433  -8.804791   8.093182  -5.687485 -34.237895   0.174343 -12.779149   0.041710   3.069900  -1.296528   4.213552  -1.875767  -0.947356  -3.135081   6.096183   0.003447  -0.004228  -4.238440  -3.166414   0.132154   0.187851  -0.000383  -0.001687  -0.398158  -1.767212   1.927830   4.056992  -0.002201  -0.001761  -5.033313   0.692849   1.683772   1.421478  -0.001289  -0.000358
 -2.375709   0.920845   3.978755  -0.161024  -0.434949   0.519715  -0.914419   0.232728  -0.230352  -0.307233  -1.146270  -0.562302  -0.607860   0.140498  -0.278122   2.467573  -0.791567   7.716456   8.464410   9.361081  37.670984   0.190282  15.360508  -0.049616   2.888568   0.565284  -3.890429   2.369864   1.294369  -9.116794   8.411743  -6.313145 -36.758965   0.162504 -13.621590   0.039520   3.282491  -1.640083   3.779452  -2.139254  -1.081697  -3.212124   6.483135   0.002799  -0.003983  -4.366100  -3.391356   0.216332   0.275308  -0.000346  -0.001650  -0.470992  -1.818079   1.869504   4.110957  -0.001754  -0.001442  -5.163916   0.712550   1.806853   1.516073  -0.001114  -0.000323
 -2.375656   0.920925   3.979036  -0.081357  -0.471192   0.551958  -0.935610   0.234867  -0.233083  -0.346094  -1.162690  -0.570919  -0.675231   0.046876  -0.306084   2.553868  -0.760430   7.598306   8.813388  10.192600  39.901881   0.173543  16.319887  -0.047258   3.046465   0.937586  -2.802316   2.527072   1.274677  -9.008523   8.678344  -6.978400 -39.002413   0.148327 -14.487334   0.037851   3.459286  -1.996660   2.820219  -2.345873  -1.225715  -3.277285   6.736892   0.002245  -0.003622  -4.454832  -3.523005   0.265703   0.484421  -0.000325  -0.001908  -0.477783  -1.831898   1.821082   4.015134  -0.001414  -0.001111  -5.202939   0.781877   1.955059   1.601657  -0.000986  -0.000241
 -2.375647   0.921018   3.979287   0.028061  -0.505818   0.583790  -0.953210   0.234238  -0.231289  -0.395979  -1.178538  -0.577124  -0.734934  -0.041990  -0.328284   2.603714  -0.726296   7.237729   9.109388  10.961909  41.807235   0.154285  17.216521  -0.044310   3.196472   1.313630  -1.943552   2.651416   1.246198  -8.680753   8.900126  -7.598840 -40.941677   0.132086 -15.300673   0.035733   3.630013  -2.373957   2.059325  -2.552302  -1.359488  -3.336506   6.930238   0.001796  -0.003205  -4.557103  -3.644857   0.308719   0.680372  -0.000310  -0.002037  -0.494923  -1.843481   1.777793   3.878331  -0.001143  -0.000830  -5.261418   0.847327   2.094176   1.685580  -0.000878  -0.000174
